<svg width="53" height="50" viewBox="0 0 53 50" fill="none" xmlns="http://www.w3.org/2000/svg">
<path d="M2.41743 9.21803L6.26006 4.6761C7.88999 2.74949 10.2846 1.63874 12.8063 1.63874H39.8565C42.267 1.63874 44.5644 2.65237 46.1891 4.43241L50.5579 9.21803H2.41743Z" fill="#F880B3"/>
<path d="M43.8758 42.1558C43.8758 41.3188 44.4762 40.6442 45.2868 40.4323C47.6761 39.8054 49.4437 37.628 49.4437 35.0445V11.8687C49.4437 10.3906 48.8575 8.97436 47.812 7.92894L45.0466 5.16176C44.003 4.1181 42.5867 3.53182 41.1104 3.53182H11.8669C10.3906 3.53182 8.97436 4.1181 7.92894 5.16176L5.16176 7.92894C4.1181 8.97259 3.53182 10.3889 3.53182 11.8652V35.0463C3.53182 37.628 5.2995 39.8072 7.68878 40.4341C8.49933 40.646 9.09974 41.3205 9.09974 42.1576C9.09974 43.3107 8.01017 44.1548 6.89235 43.8758C2.93848 42.8869 0 39.3039 0 35.0463V11.8669C0 9.45115 0.960655 7.13604 2.66829 5.42841L5.43547 2.66299C7.14134 0.957123 9.45469 0 11.8669 0H41.1157C43.5279 0 45.8413 0.95889 47.5454 2.66476L50.3108 5.43194C52.0184 7.13958 52.9773 9.45645 52.9773 11.8722V35.0463C52.9773 39.3039 50.0406 42.8869 46.085 43.8758C44.9672 44.1548 43.8776 43.3107 43.8776 42.1576L43.8758 42.1558Z" fill="#F880B3"/>
<path d="M1.7658 7.06168H51.2113V10.5935H1.7658V7.06168Z" fill="#F880B3"/>
<path d="M26.8982 19.9813C19.0964 19.9813 12.7709 26.3068 12.7709 34.1086C12.7709 41.9104 19.0964 48.2359 26.8982 48.2359C34.7 48.2359 41.0255 41.9104 41.0255 34.1086C41.0255 26.3068 34.7 19.9813 26.8982 19.9813ZM35.3692 31.5092L28.408 38.4686C27.5992 39.2774 26.5256 39.7224 25.3813 39.7224C24.2369 39.7224 23.1633 39.2774 22.3545 38.4686L20.3873 36.5014C19.6968 35.8127 19.6968 34.6931 20.3873 34.0044C21.0777 33.3157 22.1955 33.3157 22.8843 34.0044L24.8515 35.9716C25.2364 36.3566 25.5331 36.3548 25.911 35.9716L32.8722 29.0104C33.5627 28.3217 34.6805 28.3217 35.3692 29.0104C36.0579 29.7009 36.0579 30.8187 35.3692 31.5074V31.5092Z" fill="#F880B3"/>
<path d="M26.8982 50C18.1357 50 11.005 42.871 11.005 34.1068C11.005 25.3426 18.1357 18.2136 26.8982 18.2136C35.6606 18.2136 42.7914 25.3426 42.7914 34.1068C42.7914 42.871 35.6606 50 26.8982 50ZM26.8982 21.7455C20.0818 21.7455 14.5368 27.2904 14.5368 34.1068C14.5368 40.9233 20.0818 46.4682 26.8982 46.4682C33.7146 46.4682 39.2595 40.9215 39.2595 34.1068C39.2595 27.2922 33.7128 21.7455 26.8982 21.7455Z" fill="#F880B3"/>
</svg>
