<svg width="186" height="34" viewBox="0 0 186 34" fill="none" xmlns="http://www.w3.org/2000/svg">
<path d="M185.067 17.7081C185.067 18.5069 184.925 19.2674 184.641 19.9897C184.356 20.701 183.957 21.3302 183.442 21.8773C182.928 22.4245 182.31 22.8622 181.588 23.1905C180.865 23.5078 180.067 23.6665 179.191 23.6665C178.316 23.6665 177.517 23.5078 176.795 23.1905C176.083 22.8731 175.471 22.4463 174.956 21.9101C174.442 21.363 174.042 20.7338 173.758 20.0225C173.484 19.3003 173.348 18.5397 173.348 17.7409C173.348 16.9421 173.49 16.187 173.774 15.4757C174.059 14.7535 174.458 14.1188 174.973 13.5717C175.487 13.0245 176.105 12.5923 176.827 12.275C177.55 11.9467 178.348 11.7825 179.224 11.7825C180.099 11.7825 180.893 11.9412 181.604 12.2585C182.326 12.5759 182.944 13.0081 183.459 13.5553C183.973 14.0915 184.367 14.7207 184.641 15.4429C184.925 16.1542 185.067 16.9093 185.067 17.7081ZM183.721 17.7409C183.721 17.0843 183.607 16.4661 183.377 15.8861C183.158 15.3061 182.846 14.8028 182.441 14.376C182.036 13.9492 181.555 13.61 180.997 13.3583C180.45 13.1066 179.848 12.9808 179.191 12.9808C178.535 12.9808 177.927 13.1066 177.369 13.3583C176.822 13.599 176.351 13.9328 175.957 14.3596C175.564 14.7863 175.252 15.2897 175.022 15.8697C174.803 16.4387 174.694 17.0515 174.694 17.7081C174.694 18.3647 174.803 18.9829 175.022 19.5629C175.252 20.1429 175.569 20.6462 175.974 21.073C176.379 21.4998 176.855 21.839 177.402 22.0907C177.96 22.3424 178.567 22.4682 179.224 22.4682C179.88 22.4682 180.482 22.3479 181.029 22.1071C181.588 21.8554 182.064 21.5162 182.458 21.0894C182.851 20.6627 183.158 20.1648 183.377 19.5957C183.607 19.0158 183.721 18.3975 183.721 17.7409Z" fill="white"/>
<path d="M170.932 21.9101C170.396 22.3916 169.733 22.8075 168.946 23.1576C168.169 23.4969 167.293 23.6665 166.319 23.6665C165.411 23.6665 164.596 23.5133 163.874 23.2069C163.162 22.9005 162.549 22.4792 162.035 21.943C161.532 21.4068 161.143 20.7776 160.87 20.0553C160.607 19.3331 160.476 18.5616 160.476 17.7409C160.476 16.953 160.613 16.198 160.886 15.4757C161.171 14.7535 161.565 14.1188 162.068 13.5717C162.571 13.0245 163.173 12.5923 163.874 12.275C164.585 11.9467 165.373 11.7825 166.237 11.7825C166.719 11.7825 167.156 11.8154 167.55 11.881C167.955 11.9467 168.327 12.0452 168.667 12.1765C169.017 12.3078 169.34 12.4719 169.635 12.6689C169.941 12.8549 170.237 13.0683 170.521 13.3091L169.684 14.2939C169.465 14.0969 169.236 13.9219 168.995 13.7687C168.754 13.6045 168.491 13.4677 168.207 13.3583C167.933 13.2379 167.627 13.1449 167.288 13.0793C166.959 13.0136 166.593 12.9808 166.188 12.9808C165.553 12.9808 164.968 13.1066 164.432 13.3583C163.895 13.61 163.436 13.9492 163.053 14.376C162.67 14.8028 162.369 15.3061 162.15 15.8861C161.931 16.4551 161.822 17.0625 161.822 17.7081C161.822 18.3975 161.926 19.0376 162.134 19.6286C162.353 20.2085 162.659 20.7119 163.053 21.1387C163.447 21.5654 163.923 21.8992 164.481 22.1399C165.039 22.3807 165.668 22.5011 166.369 22.5011C167.025 22.5011 167.643 22.3916 168.223 22.1728C168.803 21.943 169.29 21.6694 169.684 21.3521V18.496H166.188V17.3306H170.932V21.9101Z" fill="white"/>
<path d="M158.25 17.7081C158.25 18.5069 158.108 19.2674 157.823 19.9897C157.539 20.701 157.139 21.3302 156.625 21.8773C156.111 22.4245 155.492 22.8622 154.77 23.1905C154.048 23.5078 153.249 23.6665 152.374 23.6665C151.498 23.6665 150.699 23.5078 149.977 23.1905C149.266 22.8731 148.653 22.4463 148.139 21.9101C147.624 21.363 147.225 20.7338 146.94 20.0225C146.667 19.3003 146.53 18.5397 146.53 17.7409C146.53 16.9421 146.672 16.187 146.957 15.4757C147.241 14.7535 147.641 14.1188 148.155 13.5717C148.669 13.0245 149.288 12.5923 150.01 12.275C150.732 11.9467 151.531 11.7825 152.406 11.7825C153.282 11.7825 154.075 11.9412 154.786 12.2585C155.509 12.5759 156.127 13.0081 156.641 13.5553C157.156 14.0915 157.55 14.7207 157.823 15.4429C158.108 16.1542 158.25 16.9093 158.25 17.7081ZM156.904 17.7409C156.904 17.0843 156.789 16.4661 156.559 15.8861C156.34 15.3061 156.028 14.8028 155.624 14.376C155.219 13.9492 154.737 13.61 154.179 13.3583C153.632 13.1066 153.03 12.9808 152.374 12.9808C151.717 12.9808 151.11 13.1066 150.552 13.3583C150.004 13.599 149.534 13.9328 149.14 14.3596C148.746 14.7863 148.434 15.2897 148.204 15.8697C147.985 16.4387 147.876 17.0515 147.876 17.7081C147.876 18.3647 147.985 18.9829 148.204 19.5629C148.434 20.1429 148.751 20.6462 149.156 21.073C149.561 21.4998 150.037 21.839 150.584 22.0907C151.143 22.3424 151.75 22.4682 152.406 22.4682C153.063 22.4682 153.665 22.3479 154.212 22.1071C154.77 21.8554 155.246 21.5162 155.64 21.0894C156.034 20.6627 156.34 20.1648 156.559 19.5957C156.789 19.0158 156.904 18.3975 156.904 17.7409Z" fill="white"/>
<path d="M137.533 23.4695V11.9795H138.83V22.2712H145.297V23.4695H137.533Z" fill="white"/>
<path d="M130.793 11.9795L126.378 18.8899V23.4695H123.85V18.9391L119.435 11.9795H122.389L125.13 16.5919L127.921 11.9795H130.793Z" fill="white"/>
<path d="M117.858 23.4695H115.708L110.143 16.1651V23.4695H107.648V11.9795H109.979L115.363 19.054V11.9795H117.858V23.4695Z" fill="white"/>
<path d="M105.875 23.4695H103.232L102.182 20.8924H97.3233L96.2728 23.4695H93.6957L98.62 11.8974H100.951L105.875 23.4695ZM101.279 18.6601L99.7526 14.934L98.2261 18.6601H101.279Z" fill="white"/>
<path d="M93.964 15.9846C93.964 18.6437 91.8958 20.0225 89.3188 20.0225H87.3983V23.4695H84.8705V11.9795H89.565C92.3062 11.9795 93.964 13.6045 93.964 15.9517V15.9846ZM91.4034 16.0338V16.001C91.4034 14.8684 90.6155 14.2611 89.3516 14.2611H87.3983V17.7737H89.4008C90.6647 17.7737 91.4034 17.0187 91.4034 16.0338Z" fill="white"/>
<path d="M82.1102 23.4695H79.5988V15.9682L76.3652 20.876H76.2995L73.0987 16.0174V23.4695H70.6202V11.9795H73.3449L76.3652 16.8381L79.3854 11.9795H82.1102V23.4695Z" fill="white"/>
<path d="M68.3779 17.7245C68.3779 20.9909 65.8008 23.6665 62.2553 23.6665C58.7099 23.6665 56.1656 21.0238 56.1656 17.7573V17.7245C56.1656 14.4581 58.7427 11.7825 62.2882 11.7825C65.8337 11.7825 68.3779 14.4252 68.3779 17.6917V17.7245ZM65.7352 17.7573V17.7245C65.7352 15.7548 64.2907 14.1134 62.2553 14.1134C60.22 14.1134 58.8083 15.722 58.8083 17.6917V17.7245C58.8083 19.6942 60.2528 21.3356 62.2882 21.3356C64.3235 21.3356 65.7352 19.727 65.7352 17.7573Z" fill="white"/>
<path d="M54.9715 21.6147C53.7897 22.8786 52.4765 23.6665 50.2606 23.6665C46.8792 23.6665 44.3679 21.0566 44.3679 17.7573V17.7245C44.3679 14.4581 46.83 11.7825 50.3591 11.7825C52.5258 11.7825 53.8225 12.5048 54.8894 13.5553L53.2808 15.4101C52.3944 14.6058 51.4917 14.1134 50.3427 14.1134C48.4058 14.1134 47.0106 15.722 47.0106 17.6917V17.7245C47.0106 19.6942 48.3729 21.3356 50.3427 21.3356C51.6558 21.3356 52.4601 20.8104 53.3629 19.9897L54.9715 21.6147Z" fill="white"/>
<path fill-rule="evenodd" clip-rule="evenodd" d="M13.7951 0.689453C5.97466 1.94354 0 8.72199 0 16.8959C0 20.6022 1.22842 24.0217 3.30032 26.7693C3.28873 26.6257 3.28282 26.4806 3.28282 26.3341C3.28282 23.3879 5.67122 20.9995 8.61746 20.9995C11.5637 20.9995 13.9521 23.3879 13.9521 26.3341C13.9521 29.0873 11.8665 31.3533 9.18894 31.6385C11.3691 32.709 13.8215 33.3102 16.4143 33.3102C25.4796 33.3102 32.8286 25.9612 32.8286 16.8959C32.8286 14.0563 32.1075 11.3852 30.8385 9.0555C29.2254 12.002 26.096 14 22.5 14C17.2533 14 13 9.74667 13 4.49996C13 3.14479 13.2838 1.8559 13.7951 0.689453Z" fill="white"/>
</svg>
