<svg width="14" height="14" viewBox="0 0 14 14" fill="none" xmlns="http://www.w3.org/2000/svg">
<path d="M13.2944 8.71318C13.146 8.62161 12.9544 8.63843 12.8259 8.75588C11.8901 9.60472 10.6796 10.0724 9.41802 10.0724C6.61788 10.0724 4.33968 7.79417 4.33968 4.99395C4.33968 3.73224 4.80739 2.52179 5.6562 1.58596C5.77325 1.45696 5.79086 1.26585 5.6989 1.11745C5.60693 0.969437 5.42687 0.900757 5.26056 0.947738C2.41801 1.75268 0.433136 4.38041 0.433136 7.3378C0.433136 10.9999 3.41224 13.979 7.07414 13.979C10.0314 13.979 12.6592 11.9941 13.4641 9.15153C13.5118 8.98362 13.4424 8.80505 13.2944 8.71318Z" fill="white"/>
<path d="M6.90214 6.08843L7.8276 6.55078L8.28992 7.47635C8.35591 7.60874 8.49138 7.69225 8.63938 7.69225C8.78749 7.69225 8.92245 7.60874 8.98884 7.47635L9.45166 6.55078L10.3767 6.08843C10.5091 6.02204 10.5926 5.88697 10.5926 5.73897C10.5926 5.59096 10.5091 5.45589 10.3767 5.3895L9.45166 4.92706L8.98884 4.00158C8.85606 3.73681 8.422 3.73681 8.28992 4.00158L7.8276 4.92706L6.90214 5.3895C6.76977 5.45549 6.68616 5.59096 6.68616 5.73897C6.68616 5.88697 6.76977 6.02244 6.90214 6.08843Z" fill="white"/>
<path d="M10.9806 3.04057H11.3712V3.43124C11.3712 3.64713 11.546 3.82192 11.7619 3.82192C11.9778 3.82192 12.1526 3.64713 12.1526 3.43124V3.04057H12.5432C12.7591 3.04057 12.9339 2.86588 12.9339 2.64989C12.9339 2.434 12.7591 2.25931 12.5432 2.25931H12.1526V1.86864C12.1526 1.65265 11.9778 1.47796 11.7619 1.47796C11.546 1.47796 11.3712 1.65265 11.3712 1.86864V2.25931H10.9806C10.7647 2.25931 10.59 2.434 10.59 2.64989C10.59 2.86588 10.7647 3.04057 10.9806 3.04057Z" fill="white"/>
</svg>
