<svg width="16" height="18" viewBox="0 0 16 18" fill="none" xmlns="http://www.w3.org/2000/svg">
<path fill-rule="evenodd" clip-rule="evenodd" d="M14.03 0C15.047 0 15.875 0.828 15.875 1.854V18L13.94 16.29L12.851 15.282L11.699 14.211L12.176 15.876H1.97C0.953 15.876 0.125 15.048 0.125 14.022V1.854C0.125 0.828 0.953 0 1.97 0L14.03 0ZM10.556 11.754C12.545 11.691 13.31 10.386 13.31 10.386C13.31 7.488 12.014 5.139 12.014 5.139C10.718 4.167 9.485 4.194 9.485 4.194L9.359 4.338C10.889 4.806 11.6 5.481 11.6 5.481C10.664 4.968 9.746 4.716 8.891 4.617C8.243 4.545 7.622 4.563 7.073 4.635L6.92 4.653C6.605 4.68 5.84 4.797 4.877 5.22C4.544 5.373 4.346 5.481 4.346 5.481C4.346 5.481 5.093 4.77 6.713 4.302L6.623 4.194C6.623 4.194 5.39 4.167 4.094 5.139C4.094 5.139 2.798 7.488 2.798 10.386C2.798 10.386 3.554 11.691 5.543 11.754C5.543 11.754 5.876 11.349 6.146 11.007C5.003 10.665 4.571 9.945 4.571 9.945L4.823 10.098L4.859 10.125L4.89425 10.1453L4.90475 10.1497L4.94 10.17C5.165 10.296 5.39 10.395 5.597 10.476C5.966 10.62 6.407 10.764 6.92 10.863C7.595 10.989 8.387 11.034 9.251 10.872C9.674 10.8 10.106 10.674 10.556 10.485C10.871 10.368 11.222 10.197 11.591 9.954C11.591 9.954 11.141 10.692 9.962 11.025C10.232 11.367 10.556 11.754 10.556 11.754ZM6.371 7.551C5.858 7.551 5.453 8.001 5.453 8.55C5.453 9.099 5.867 9.549 6.371 9.549C6.884 9.549 7.289 9.099 7.289 8.55C7.298 8.001 6.884 7.551 6.371 7.551ZM9.656 7.551C9.143 7.551 8.738 8.001 8.738 8.55C8.738 9.099 9.152 9.549 9.656 9.549C10.169 9.549 10.574 9.099 10.574 8.55C10.574 8.001 10.169 7.551 9.656 7.551Z" fill="white"/>
</svg>
