<svg width="50" height="50" viewBox="0 0 50 50" fill="none" xmlns="http://www.w3.org/2000/svg">
<path d="M29.6887 0H5.7294C2.5626 0 0 2.5626 0 5.7294V38.0224C0 41.1892 2.5626 43.7518 5.7294 43.7518H15.9381C16.1465 42.9184 16.5215 42.1267 17.0007 41.3975L27.8761 23.7301C29.272 21.3342 31.9804 19.7925 34.8972 19.7925C35.0639 19.7925 35.2514 19.7925 35.4181 19.8133V5.7294C35.4181 2.5626 32.8555 0 29.6887 0ZM8.33367 8.33367H16.6673C17.8132 8.33367 18.7507 9.27121 18.7507 10.4171C18.7507 11.563 17.8132 12.5005 16.6673 12.5005H8.33367C7.18779 12.5005 6.25025 11.563 6.25025 10.4171C6.25025 9.27121 7.18779 8.33367 8.33367 8.33367ZM18.7507 29.1679H8.33367C7.18779 29.1679 6.25025 28.2303 6.25025 27.0844C6.25025 25.9386 7.18779 25.001 8.33367 25.001H18.7507C19.8966 25.001 20.8342 25.9386 20.8342 27.0844C20.8342 28.2303 19.8966 29.1679 18.7507 29.1679ZM27.0844 20.8342H8.33367C7.18779 20.8342 6.25025 19.8966 6.25025 18.7508C6.25025 17.6049 7.18779 16.6673 8.33367 16.6673H27.0844C28.2303 16.6673 29.1678 17.6049 29.1678 18.7508C29.1678 19.8966 28.2303 20.8342 27.0844 20.8342Z" fill="#F97A82"/>
<path d="M49.3913 43.7997L38.3951 25.9364C37.6763 24.7155 36.3346 23.9572 34.897 23.9572C33.4595 23.9572 32.1177 24.7155 31.4198 25.9031L20.4485 43.7288C20.0193 44.3664 19.7922 45.1268 19.7922 45.9268C19.7922 48.1728 21.6256 49.9999 23.8799 49.9999H45.9141C48.1684 49.9999 50.0018 48.1728 50.0018 45.9268C50.0018 45.1268 49.7747 44.3664 49.3913 43.7997ZM34.897 45.8331C33.747 45.8331 32.8136 44.8997 32.8136 43.7497C32.8136 42.5996 33.747 41.6662 34.897 41.6662C36.0471 41.6662 36.9804 42.5996 36.9804 43.7497C36.9804 44.8997 36.0471 45.8331 34.897 45.8331ZM36.9804 38.5411C36.9804 39.6912 36.0491 40.6245 34.897 40.6245C33.7449 40.6245 32.8136 39.6912 32.8136 38.5411V34.3743C32.8136 33.2242 33.7449 32.2909 34.897 32.2909C36.0491 32.2909 36.9804 33.2242 36.9804 34.3743V38.5411Z" fill="#F97A82"/>
</svg>
