<svg width="18" height="18" viewBox="0 0 18 18" fill="none" xmlns="http://www.w3.org/2000/svg">
<path d="M9 0.221924C4.0305 0.221924 0 4.25167 0 9.22192C0 13.1984 2.5785 16.5719 6.15525 17.7622C6.6045 17.8454 6.75 17.5664 6.75 17.3294V15.6539C4.2465 16.1984 3.72525 14.5919 3.72525 14.5919C3.31575 13.5517 2.7255 13.2749 2.7255 13.2749C1.90875 12.7162 2.78775 12.7282 2.78775 12.7282C3.6915 12.7912 4.167 13.6559 4.167 13.6559C4.9695 15.0314 6.27225 14.6339 6.786 14.4037C6.86625 13.8224 7.0995 13.4249 7.3575 13.2007C5.35875 12.9719 3.25725 12.2002 3.25725 8.75242C3.25725 7.76917 3.609 6.96667 4.18425 6.33667C4.09125 6.10942 3.783 5.19367 4.272 3.95467C4.272 3.95467 5.028 3.71317 6.74775 4.87717C7.4655 4.67767 8.235 4.57792 9 4.57417C9.765 4.57792 10.5352 4.67767 11.2545 4.87717C12.9727 3.71317 13.7272 3.95467 13.7272 3.95467C14.217 5.19442 13.9087 6.11017 13.8158 6.33667C14.3932 6.96667 14.742 7.76992 14.742 8.75242C14.742 12.2092 12.6368 12.9704 10.6327 13.1932C10.9552 13.4722 11.25 14.0197 11.25 14.8597V17.3294C11.25 17.5687 11.394 17.8499 11.8507 17.7614C15.4245 16.5697 18 13.1969 18 9.22192C18 4.25167 13.9703 0.221924 9 0.221924Z" fill="white"/>
</svg>
