<svg width="50" height="50" viewBox="0 0 50 50" fill="none" xmlns="http://www.w3.org/2000/svg">
<path d="M12.7186 13.5027L8.38679 13.8373C7.18143 13.9305 6.1079 14.5622 5.4413 15.5705L0.44553 23.1263C-0.0600339 23.891 -0.140405 24.8479 0.230394 25.6862C0.60129 26.5245 1.36349 27.1086 2.26925 27.249L6.23553 27.8632C7.16336 22.9394 9.38444 18.0277 12.7186 13.5027Z" fill="#3ADDC9"/>
<path d="M22.1368 43.7645L22.7512 47.7308C22.8915 48.6365 23.4757 49.3987 24.3139 49.7695C24.6626 49.9238 25.0317 50 25.399 50C25.9149 50 26.4272 49.8497 26.8738 49.5544L34.4298 44.5587C35.4381 43.892 36.0698 42.8184 36.1628 41.6132L36.4975 37.2814C31.9723 40.6157 27.0607 42.8368 22.1368 43.7645Z" fill="#3ADDC9"/>
<path d="M20.6451 41.0154C20.7828 41.0154 20.9213 41.0041 21.0595 40.981C23.1224 40.6361 25.1106 40.055 27.0073 39.2945L10.7056 22.9928C9.94508 24.8894 9.36403 26.8777 9.01911 28.9407C8.88318 29.7538 9.15593 30.5822 9.73884 31.1652L18.8349 40.2613C19.3189 40.7452 19.9721 41.0154 20.6451 41.0154Z" fill="#3ADDC9"/>
<path d="M46.0132 22.1681C50.0024 14.4559 50.1501 6.30592 49.9416 2.48368C49.8702 1.17402 48.8261 0.129882 47.5163 0.0584958C46.894 0.0245116 46.1564 0 45.3251 0C41.0511 0 34.2883 0.64736 27.8319 3.98689C22.7009 6.64088 15.9727 12.4847 12.0032 20.1645C12.0501 20.2012 12.0959 20.24 12.139 20.2832L29.717 37.8612C29.7602 37.9044 29.799 37.9501 29.8356 37.9969C37.5154 34.0273 43.3592 27.2992 46.0132 22.1681ZM29.0719 10.5703C31.9275 7.7147 36.574 7.71441 39.4298 10.5703C40.8132 11.9535 41.575 13.7929 41.575 15.7492C41.575 17.7056 40.8132 19.5449 39.4298 20.9282C38.0022 22.3558 36.1262 23.0698 34.2509 23.07C32.375 23.0701 30.4999 22.3562 29.0719 20.9282C27.6885 19.5449 26.9266 17.7056 26.9266 15.7492C26.9266 13.7929 27.6885 11.9535 29.0719 10.5703Z" fill="#3ADDC9"/>
<path d="M31.1435 18.8566C32.8569 20.57 35.645 20.5701 37.3584 18.8566C38.1883 18.0265 38.6455 16.923 38.6455 15.7492C38.6455 14.5753 38.1883 13.4718 37.3584 12.6418C36.5017 11.7851 35.3763 11.3568 34.2509 11.3568C33.1256 11.3568 32.0002 11.7851 31.1436 12.6418C30.3136 13.4718 29.8564 14.5753 29.8564 15.7492C29.8564 16.923 30.3135 18.0266 31.1435 18.8566Z" fill="#3ADDC9"/>
<path d="M1.49466 41.2047C1.86956 41.2047 2.24446 41.0617 2.5304 40.7756L7.31293 35.9931C7.885 35.421 7.885 34.4936 7.31293 33.9215C6.74096 33.3494 5.81342 33.3494 5.24134 33.9215L0.458814 38.704C-0.113257 39.2761 -0.113257 40.2035 0.458814 40.7756C0.74485 41.0616 1.11975 41.2047 1.49466 41.2047Z" fill="#3ADDC9"/>
<path d="M11.6958 38.3044C11.1239 37.7323 10.1963 37.7323 9.62426 38.3044L0.42942 47.4992C-0.142652 48.0713 -0.142652 48.9987 0.42942 49.5708C0.715456 49.8568 1.09036 49.9998 1.46526 49.9998C1.84016 49.9998 2.21507 49.8568 2.50101 49.5707L11.6958 40.376C12.2679 39.8039 12.2679 38.8764 11.6958 38.3044Z" fill="#3ADDC9"/>
<path d="M14.007 42.6873L9.22458 47.4698C8.65251 48.0419 8.65251 48.9693 9.22458 49.5414C9.51062 49.8274 9.88552 49.9705 10.2603 49.9705C10.6351 49.9705 11.0101 49.8275 11.2961 49.5414L16.0786 44.7588C16.6507 44.1868 16.6507 43.2593 16.0786 42.6873C15.5066 42.1152 14.5791 42.1152 14.007 42.6873Z" fill="#3ADDC9"/>
<path d="M12.7186 13.5027L8.38679 13.8373C7.18143 13.9305 6.1079 14.5622 5.4413 15.5705L0.44553 23.1263C-0.0600339 23.891 -0.140404 24.8479 0.230394 25.6862C0.60129 26.5245 1.36349 27.1086 2.26925 27.249L6.23553 27.8632C7.16336 22.9394 9.38444 18.0277 12.7186 13.5027Z" fill="#3ADDC9"/>
<path d="M22.1368 43.7645L22.7512 47.7308C22.8915 48.6365 23.4757 49.3987 24.3139 49.7695C24.6626 49.9238 25.0317 50 25.399 50C25.9149 50 26.4272 49.8497 26.8738 49.5544L34.4298 44.5587C35.4381 43.892 36.0698 42.8184 36.1628 41.6133L36.4975 37.2814C31.9723 40.6157 27.0607 42.8368 22.1368 43.7645Z" fill="#3ADDC9"/>
<path d="M31.1433 18.8565C32.8567 20.5699 35.6448 20.57 37.3582 18.8565C38.1882 18.0264 38.6453 16.9229 38.6453 15.7491C38.6453 14.5752 38.1882 13.4717 37.3582 12.6417C36.5015 11.785 35.3761 11.3567 34.2507 11.3567C33.1254 11.3567 32.0001 11.785 31.1434 12.6417C30.3134 13.4717 29.8562 14.5752 29.8562 15.7491C29.8562 16.9229 30.3133 18.0265 31.1433 18.8565Z" fill="#3ADDC9"/>
</svg>
