<svg width="50" height="50" viewBox="0 0 50 50" fill="none" xmlns="http://www.w3.org/2000/svg">
<path d="M19.2707 0H3.64571C1.63536 0 0 1.63536 0 3.64571V13.0207C0 15.0314 1.63536 16.6668 3.64571 16.6668H19.2707C21.2814 16.6668 22.9168 15.0314 22.9168 13.0207V3.64571C22.9168 1.63536 21.2814 0 19.2707 0Z" fill="#6E7CF3"/>
<path d="M19.2707 20.8333H3.64571C1.63536 20.8333 0 22.4686 0 24.4794V46.3544C0 48.3647 1.63536 50.0001 3.64571 50.0001H19.2707C21.2814 50.0001 22.9168 48.3647 22.9168 46.3544V24.4794C22.9168 22.4686 21.2814 20.8333 19.2707 20.8333Z" fill="#6E7CF3"/>
<path d="M46.3547 33.3333H30.7297C28.719 33.3333 27.0836 34.9686 27.0836 36.9794V46.3544C27.0836 48.3647 28.719 50.0001 30.7297 50.0001H46.3547C48.365 50.0001 50.0004 48.3647 50.0004 46.3544V36.9794C50.0004 34.9686 48.365 33.3333 46.3547 33.3333Z" fill="#6E7CF3"/>
<path d="M46.3547 0H30.7297C28.719 0 27.0836 1.63536 27.0836 3.64571V25.5207C27.0836 27.5314 28.719 29.1668 30.7297 29.1668H46.3547C48.365 29.1668 50.0004 27.5314 50.0004 25.5207V3.64571C50.0004 1.63536 48.365 0 46.3547 0Z" fill="#6E7CF3"/>
</svg>
