<svg width="16" height="16" viewBox="0 0 16 16" fill="none" xmlns="http://www.w3.org/2000/svg">
<path d="M8.02202 4.14283C5.89514 4.14283 4.16486 5.87345 4.16486 8.00033C4.16486 10.1272 5.89514 11.8578 8.02202 11.8578C10.1486 11.8578 11.8792 10.1275 11.8792 8.00033C11.8792 5.87311 10.1486 4.14283 8.02202 4.14283Z" fill="white"/>
<path d="M8.02202 3.00897C7.60633 3.00897 7.26941 2.67205 7.26941 2.2567V1.0526C7.26941 0.636905 7.60633 0.299988 8.02202 0.299988C8.43771 0.299988 8.77463 0.636905 8.77463 1.0526V2.2567C8.77463 2.67205 8.43737 3.00897 8.02202 3.00897Z" fill="white"/>
<path d="M8.02202 12.9907C7.60633 12.9907 7.26941 13.3276 7.26941 13.7433V14.947C7.26941 15.3631 7.60633 15.7 8.02202 15.7C8.43771 15.7 8.77463 15.3631 8.77463 14.947V13.7433C8.77463 13.3276 8.43737 12.9907 8.02202 12.9907Z" fill="white"/>
<path d="M11.5508 4.47088C11.2572 4.17693 11.2572 3.70054 11.5508 3.40659L12.4023 2.55509C12.6959 2.26148 13.1726 2.26148 13.4666 2.55509C13.7605 2.84904 13.7605 3.32577 13.4666 3.61938L12.6151 4.47088C12.3215 4.76483 11.8451 4.76483 11.5508 4.47088Z" fill="white"/>
<path d="M4.49291 11.5294C4.19896 11.2351 3.72257 11.2351 3.42862 11.5294L2.57712 12.3806C2.28351 12.6742 2.28317 13.1513 2.57712 13.4449C2.87107 13.7385 3.3478 13.7385 3.64141 13.4449L4.49291 12.593C4.78686 12.2994 4.78686 11.8227 4.49291 11.5294Z" fill="white"/>
<path d="M13.0127 7.99999C13.0127 7.5843 13.3496 7.24738 13.7653 7.24738H14.9694C15.3851 7.24738 15.722 7.5843 15.722 7.99999C15.722 8.41568 15.3851 8.75225 14.9694 8.75225H13.7653C13.3496 8.75225 13.0127 8.41568 13.0127 7.99999Z" fill="white"/>
<path d="M3.031 7.99999C3.031 7.5843 2.69409 7.24738 2.27839 7.24738H1.07463C0.658939 7.24738 0.322021 7.5843 0.322021 7.99999C0.322021 8.41568 0.658939 8.75225 1.07463 8.75225H2.27874C2.69409 8.75225 3.031 8.41568 3.031 7.99999Z" fill="white"/>
<path d="M11.5508 11.5294C11.8447 11.2358 12.3215 11.2358 12.6151 11.5294L13.4666 12.3809C13.7605 12.6742 13.7605 13.1513 13.4666 13.4449C13.1726 13.7385 12.6962 13.7385 12.4023 13.4449L11.5508 12.5934C11.2568 12.2994 11.2568 11.823 11.5508 11.5294Z" fill="white"/>
<path d="M4.49291 4.47088C4.78686 4.17693 4.78686 3.70054 4.49291 3.40659L3.64141 2.55543C3.34746 2.26148 2.87107 2.26148 2.57712 2.55543C2.28317 2.84904 2.28317 3.32577 2.57712 3.61938L3.42862 4.47088C3.72257 4.76517 4.19896 4.76517 4.49291 4.47088Z" fill="white"/>
</svg>
