<svg width="39" height="50" viewBox="0 0 39 50" fill="none" xmlns="http://www.w3.org/2000/svg">
<path d="M0 1.46484V39.7461C0 40.5558 0.655176 41.2109 1.46484 41.2109H27.832C28.6417 41.2109 29.2969 40.5558 29.2969 39.7461V1.46484C29.2969 0.655176 28.6417 0 27.832 0H1.46484C0.655176 0 0 0.655176 0 1.46484ZM23.4375 33.7891H17.5781C16.7685 33.7891 16.1133 33.1339 16.1133 32.3242C16.1133 31.5146 16.7685 30.8594 17.5781 30.8594H23.4375C24.2472 30.8594 24.9023 31.5146 24.9023 32.3242C24.9023 33.1339 24.2472 33.7891 23.4375 33.7891ZM5.85938 7.42188H14.6484C15.4581 7.42188 16.1133 8.07705 16.1133 8.88672C16.1133 9.69639 15.4581 10.3516 14.6484 10.3516H5.85938C5.04971 10.3516 4.39453 9.69639 4.39453 8.88672C4.39453 8.07705 5.04971 7.42188 5.85938 7.42188ZM5.85938 13.2812H23.4375C24.2472 13.2812 24.9023 13.9364 24.9023 14.7461C24.9023 15.5558 24.2472 16.2109 23.4375 16.2109H5.85938C5.04971 16.2109 4.39453 15.5558 4.39453 14.7461C4.39453 13.9364 5.04971 13.2812 5.85938 13.2812ZM5.85938 19.1406H23.4375C24.2472 19.1406 24.9023 19.7958 24.9023 20.6055C24.9023 21.4151 24.2472 22.0703 23.4375 22.0703H5.85938C5.04971 22.0703 4.39453 21.4151 4.39453 20.6055C4.39453 19.7958 5.04971 19.1406 5.85938 19.1406ZM5.85938 25H23.4375C24.2472 25 24.9023 25.6552 24.9023 26.4648C24.9023 27.2745 24.2472 27.9297 23.4375 27.9297H5.85938C5.04971 27.9297 4.39453 27.2745 4.39453 26.4648C4.39453 25.6552 5.04971 25 5.85938 25Z" fill="#BC72E9"/>
<path d="M10.2539 50H36.6211C37.4308 50 38.0859 49.3448 38.0859 48.5352V10.3516C38.0859 9.54189 37.4308 8.88672 36.6211 8.88672H32.2266V39.7461C32.2266 42.1693 30.2553 44.1406 27.832 44.1406H8.78906V48.5352C8.78906 49.3448 9.44424 50 10.2539 50Z" fill="#BC72E9"/>
</svg>
