<svg width="50" height="50" viewBox="0 0 50 50" fill="none" xmlns="http://www.w3.org/2000/svg">
<path d="M20.6055 50V45.5078C17.3739 45.5078 14.7461 42.88 14.7461 39.6484C14.7461 36.4169 17.3739 33.7891 20.6055 33.7891V29.3945H12.4172L13.1139 27.4376C13.2255 27.1271 13.2812 26.7996 13.2812 26.4648C13.2812 24.8498 11.9666 23.5352 10.3516 23.5352C8.73652 23.5352 7.42188 24.8498 7.42188 26.4648C7.42188 26.7996 7.47764 27.1271 7.58926 27.4376L8.28594 29.3945H0C0.726855 40.341 9.65898 49.2731 20.6055 50Z" fill="#63C6DC"/>
<path d="M10.3516 20.6054C13.5831 20.6054 16.2109 23.2333 16.2109 26.4648H20.6055V18.2765L22.5624 18.9732C24.3663 19.6155 26.4634 18.1592 26.4648 16.2109C26.4634 14.2611 24.3677 12.7934 22.5624 13.4486L20.6055 14.1453V6.03122C9.65898 6.75807 0.726855 15.5183 0 26.4648H4.49219C4.49219 23.2333 7.12002 20.6054 10.3516 20.6054Z" fill="#63C6DC"/>
<path d="M43.9688 29.3945H39.6484C39.6484 32.6261 37.0206 35.2539 33.7891 35.2539C30.5575 35.2539 27.9297 32.6261 27.9297 29.3945H23.5352V37.5828L21.5782 36.8861C19.7672 36.2353 17.6743 37.6986 17.6758 39.6484C17.6743 41.5982 19.7687 43.0616 21.5782 42.4107L23.5352 41.7141V50C34.4816 49.2731 43.2419 40.341 43.9688 29.3945Z" fill="#63C6DC"/>
<path d="M44.043 11.8164V5.95703H38.1836C38.1836 2.72549 35.5558 0 32.3242 0C29.0927 0 26.4648 2.72549 26.4648 5.95703H23.5352V10.3516C26.7667 10.3516 29.3945 12.9794 29.3945 16.2109C29.3945 19.4425 26.7667 22.0703 23.5352 22.0703V26.4648H31.7234L31.0268 28.4218C30.9151 28.7322 30.8594 29.0598 30.8594 29.3945C30.8594 31.0096 32.174 32.3242 33.7891 32.3242C35.4041 32.3242 36.7188 31.0096 36.7188 29.3945C36.7188 29.0598 36.663 28.7322 36.5514 28.4218L35.8547 26.4648H44.043V23.5352C47.2745 23.5352 50 20.9073 50 17.6758C50 14.4442 47.2745 11.8164 44.043 11.8164Z" fill="#63C6DC"/>
</svg>
