<svg width="51" height="40" viewBox="0 0 51 40" fill="none" xmlns="http://www.w3.org/2000/svg">
<path d="M0.428711 16.6789V32.7163C0.428711 36.6089 3.59025 39.7727 7.47999 39.7727H43.3774C47.2672 39.7727 50.4287 36.6089 50.4287 32.7163V16.6789H0.428711ZM15.1723 32.0748H10.0441C8.98256 32.0748 8.12102 31.2126 8.12102 30.1503C8.12102 29.088 8.98256 28.2258 10.0441 28.2258H15.1723C16.2338 28.2258 17.0954 29.088 17.0954 30.1503C17.0954 31.2126 16.2338 32.0748 15.1723 32.0748ZM27.9928 32.0748H22.8646C21.8031 32.0748 20.9415 31.2126 20.9415 30.1503C20.9415 29.088 21.8031 28.2258 22.8646 28.2258H27.9928C29.0544 28.2258 29.9159 29.088 29.9159 30.1503C29.9159 31.2126 29.0544 32.0748 27.9928 32.0748ZM0.428711 12.8299V7.05645C0.428711 3.16386 3.59025 0 7.47999 0H43.3774C47.2672 0 50.4287 3.16386 50.4287 7.05645V12.8299H0.428711Z" fill="#F49A7D"/>
<path d="M0.428711 12.8299V7.05645C0.428711 3.16386 3.59025 0 7.47999 0H43.3774C47.2672 0 50.4287 3.16386 50.4287 7.05645V12.8299H0.428711Z" fill="#F49A7D"/>
</svg>
