<svg width="48" height="50" viewBox="0 0 48 50" fill="none" xmlns="http://www.w3.org/2000/svg">
<path d="M23.8166 15.2686C18.4504 15.2686 14.0851 19.6338 14.0851 25C14.0851 30.3662 18.4504 34.7314 23.8166 34.7314C29.1828 34.7314 33.548 30.3662 33.548 25C33.548 19.6338 29.1828 15.2686 23.8166 15.2686ZM25.2541 30.3691C25.2424 31.168 24.592 31.8115 23.7902 31.8115C23.0549 31.8115 22.4484 31.2695 22.343 30.5625C21.8322 30.4492 21.3449 30.2353 20.7443 29.8418C20.0676 29.3994 19.8771 28.4912 20.3205 27.8145C20.7629 27.1367 21.6711 26.9473 22.3478 27.3906C22.8693 27.7314 23.009 27.7539 23.7541 27.748C24.3342 27.7441 24.5656 27.2891 24.6115 27.0195C24.6808 26.6064 24.426 26.46 24.1965 26.3789C23.1877 26.0225 22.1515 25.6113 21.4025 25.0244C19.6496 23.6494 20.0998 20.5693 22.3273 19.627C22.341 18.8301 22.9904 18.1885 23.7902 18.1885C24.5666 18.1885 25.2004 18.792 25.2502 19.5557C26.4767 19.998 26.5871 21.3301 25.8605 22.0293C25.4455 22.4307 24.8351 22.543 24.2961 22.334C23.8812 22.1738 23.498 22.2783 23.3957 22.3701C23.2365 22.5156 23.2785 22.7793 23.464 22.8887C23.9191 23.1572 24.5998 23.4141 25.173 23.6162C28.4514 24.7754 28.2053 29.1006 25.2541 30.3691ZM23.8166 15.2686C18.4504 15.2686 14.0851 19.6338 14.0851 25C14.0851 30.3662 18.4504 34.7314 23.8166 34.7314C29.1828 34.7314 33.548 30.3662 33.548 25C33.548 19.6338 29.1828 15.2686 23.8166 15.2686ZM25.2541 30.3691C25.2424 31.168 24.592 31.8115 23.7902 31.8115C23.0549 31.8115 22.4484 31.2695 22.343 30.5625C21.8322 30.4492 21.3449 30.2353 20.7443 29.8418C20.0676 29.3994 19.8771 28.4912 20.3205 27.8145C20.7629 27.1367 21.6711 26.9473 22.3478 27.3906C22.8693 27.7314 23.009 27.7539 23.7541 27.748C24.3342 27.7441 24.5656 27.2891 24.6115 27.0195C24.6808 26.6064 24.426 26.46 24.1965 26.3789C23.1877 26.0225 22.1515 25.6113 21.4025 25.0244C19.6496 23.6494 20.0998 20.5693 22.3273 19.627C22.341 18.8301 22.9904 18.1885 23.7902 18.1885C24.5666 18.1885 25.2004 18.792 25.2502 19.5557C26.4767 19.998 26.5871 21.3301 25.8605 22.0293C25.4455 22.4307 24.8351 22.543 24.2961 22.334C23.8812 22.1738 23.498 22.2783 23.3957 22.3701C23.2365 22.5156 23.2785 22.7793 23.464 22.8887C23.9191 23.1572 24.5998 23.4141 25.173 23.6162C28.4514 24.7754 28.2053 29.1006 25.2541 30.3691ZM46.1691 30.4248L45.0783 29.7959C41.4738 27.7139 41.4641 22.291 45.0783 20.2041L46.1691 19.5752C47.5676 18.7666 48.049 16.9717 47.2414 15.5732L43.6935 9.42676C42.8849 8.02832 41.09 7.54688 39.6906 8.35449L38.6057 8.98145C35.0246 11.0488 30.2941 8.3916 30.2941 4.19336V2.92969C30.2941 1.31445 28.9806 0 27.3644 0H20.2687C18.6525 0 17.339 1.31445 17.339 2.92969V4.19336C17.339 8.3916 12.6086 11.0488 9.02752 8.98145L7.94256 8.35449C6.54315 7.54688 4.74823 8.02832 3.93963 9.42676L0.39178 15.5732C-0.415837 16.9717 0.0656081 18.7666 1.46405 19.5752L2.55487 20.2041C6.15936 22.2861 6.16912 27.709 2.55487 29.7959L1.46405 30.4248C0.0656081 31.2334 -0.415837 33.0283 0.39178 34.4268L3.93963 40.5732C4.74823 41.9717 6.54315 42.4531 7.94256 41.6455L9.02752 41.0186C10.7043 40.0508 12.8068 40.0654 14.5148 41.0566L14.5978 41.1045C16.2883 42.0742 17.339 43.876 17.339 45.8066V47.0703C17.339 48.6855 18.6525 50 20.2687 50H27.3644C28.9806 50 30.2941 48.6855 30.2941 47.0703V45.8066C30.2941 41.6084 35.0256 38.9512 38.6057 41.0186L39.6916 41.6455C41.09 42.4531 42.8859 41.9717 43.6935 40.5732L47.2414 34.4268C48.049 33.0283 47.5676 31.2334 46.1691 30.4248ZM23.8166 37.6611C16.8351 37.6611 11.1555 31.9814 11.1555 25C11.1555 18.0186 16.8351 12.3389 23.8166 12.3389C30.798 12.3389 36.4777 18.0186 36.4777 25C36.4777 31.9814 30.798 37.6611 23.8166 37.6611ZM23.8166 15.2686C18.4504 15.2686 14.0851 19.6338 14.0851 25C14.0851 30.3662 18.4504 34.7314 23.8166 34.7314C29.1828 34.7314 33.548 30.3662 33.548 25C33.548 19.6338 29.1828 15.2686 23.8166 15.2686ZM25.2541 30.3691C25.2424 31.168 24.592 31.8115 23.7902 31.8115C23.0549 31.8115 22.4484 31.2695 22.343 30.5625C21.8322 30.4492 21.3449 30.2353 20.7443 29.8418C20.0676 29.3994 19.8771 28.4912 20.3205 27.8145C20.7629 27.1367 21.6711 26.9473 22.3478 27.3906C22.8693 27.7314 23.009 27.7539 23.7541 27.748C24.3342 27.7441 24.5656 27.2891 24.6115 27.0195C24.6808 26.6064 24.426 26.46 24.1965 26.3789C23.1877 26.0225 22.1515 25.6113 21.4025 25.0244C19.6496 23.6494 20.0998 20.5693 22.3273 19.627C22.341 18.8301 22.9904 18.1885 23.7902 18.1885C24.5666 18.1885 25.2004 18.792 25.2502 19.5557C26.4767 19.998 26.5871 21.3301 25.8605 22.0293C25.4455 22.4307 24.8351 22.543 24.2961 22.334C23.8812 22.1738 23.498 22.2783 23.3957 22.3701C23.2365 22.5156 23.2785 22.7793 23.464 22.8887C23.9191 23.1572 24.5998 23.4141 25.173 23.6162C28.4514 24.7754 28.2053 29.1006 25.2541 30.3691Z" fill="#8574EF"/>
<path d="M23.8159 15.2672C18.4497 15.2672 14.0844 19.6325 14.0844 24.9987C14.0844 30.3649 18.4497 34.7301 23.8159 34.7301C29.1821 34.7301 33.5473 30.3649 33.5473 24.9987C33.5473 19.6325 29.1821 15.2672 23.8159 15.2672ZM25.2534 30.3678C25.2417 31.1666 24.5913 31.8102 23.7895 31.8102C23.0542 31.8102 22.4477 31.2682 22.3423 30.5612C21.8315 30.4479 21.3442 30.234 20.7436 29.8405C20.0669 29.3981 19.8764 28.4899 20.3198 27.8131C20.7622 27.1354 21.6704 26.9459 22.3471 27.3893C22.8686 27.7301 23.0083 27.7526 23.7534 27.7467C24.3335 27.7428 24.5649 27.2877 24.6108 27.0182C24.6802 26.6051 24.4253 26.4586 24.1958 26.3776C23.187 26.0211 22.1509 25.61 21.4018 25.0231C19.6489 23.6481 20.0991 20.568 22.3266 19.6256C22.3403 18.8288 22.9897 18.1872 23.7895 18.1872C24.5659 18.1872 25.1997 18.7907 25.2495 19.5543C26.4761 19.9967 26.5864 21.3288 25.8598 22.028C25.4448 22.4293 24.8344 22.5417 24.2954 22.3327C23.8805 22.1725 23.4973 22.277 23.395 22.3688C23.2358 22.5143 23.2778 22.778 23.4634 22.8874C23.9184 23.1559 24.5991 23.4127 25.1723 23.6149C28.4507 24.7741 28.2046 29.0993 25.2534 30.3678ZM23.8159 15.2672C18.4497 15.2672 14.0844 19.6325 14.0844 24.9987C14.0844 30.3649 18.4497 34.7301 23.8159 34.7301C29.1821 34.7301 33.5473 30.3649 33.5473 24.9987C33.5473 19.6325 29.1821 15.2672 23.8159 15.2672ZM25.2534 30.3678C25.2417 31.1666 24.5913 31.8102 23.7895 31.8102C23.0542 31.8102 22.4477 31.2682 22.3423 30.5612C21.8315 30.4479 21.3442 30.234 20.7436 29.8405C20.0669 29.3981 19.8764 28.4899 20.3198 27.8131C20.7622 27.1354 21.6704 26.9459 22.3471 27.3893C22.8686 27.7301 23.0083 27.7526 23.7534 27.7467C24.3335 27.7428 24.5649 27.2877 24.6108 27.0182C24.6802 26.6051 24.4253 26.4586 24.1958 26.3776C23.187 26.0211 22.1509 25.61 21.4018 25.0231C19.6489 23.6481 20.0991 20.568 22.3266 19.6256C22.3403 18.8288 22.9897 18.1872 23.7895 18.1872C24.5659 18.1872 25.1997 18.7907 25.2495 19.5543C26.4761 19.9967 26.5864 21.3288 25.8598 22.028C25.4448 22.4293 24.8344 22.5417 24.2954 22.3327C23.8805 22.1725 23.4973 22.277 23.395 22.3688C23.2358 22.5143 23.2778 22.778 23.4634 22.8874C23.9184 23.1559 24.5991 23.4127 25.1723 23.6149C28.4507 24.7741 28.2046 29.0993 25.2534 30.3678ZM23.8159 15.2672C18.4497 15.2672 14.0844 19.6325 14.0844 24.9987C14.0844 30.3649 18.4497 34.7301 23.8159 34.7301C29.1821 34.7301 33.5473 30.3649 33.5473 24.9987C33.5473 19.6325 29.1821 15.2672 23.8159 15.2672ZM25.2534 30.3678C25.2417 31.1666 24.5913 31.8102 23.7895 31.8102C23.0542 31.8102 22.4477 31.2682 22.3423 30.5612C21.8315 30.4479 21.3442 30.234 20.7436 29.8405C20.0669 29.3981 19.8764 28.4899 20.3198 27.8131C20.7622 27.1354 21.6704 26.9459 22.3471 27.3893C22.8686 27.7301 23.0083 27.7526 23.7534 27.7467C24.3335 27.7428 24.5649 27.2877 24.6108 27.0182C24.6802 26.6051 24.4253 26.4586 24.1958 26.3776C23.187 26.0211 22.1509 25.61 21.4018 25.0231C19.6489 23.6481 20.0991 20.568 22.3266 19.6256C22.3403 18.8288 22.9897 18.1872 23.7895 18.1872C24.5659 18.1872 25.1997 18.7907 25.2495 19.5543C26.4761 19.9967 26.5864 21.3288 25.8598 22.028C25.4448 22.4293 24.8344 22.5417 24.2954 22.3327C23.8805 22.1725 23.4973 22.277 23.395 22.3688C23.2358 22.5143 23.2778 22.778 23.4634 22.8874C23.9184 23.1559 24.5991 23.4127 25.1723 23.6149C28.4507 24.7741 28.2046 29.0993 25.2534 30.3678Z" fill="#8574EF"/>
</svg>
